<?xml version="1.0" standalone="no"?>
<!DOCTYPE svg PUBLIC "-//W3C//DTD SVG 1.1//EN" "http://www.w3.org/Graphics/SVG/1.1/DTD/svg11.dtd" >
<!--
2013-9-30: Created.
-->
<svg>
<metadata>
Created by iconfont
</metadata>
<defs>

<font id="iconfont" horiz-adv-x="1024" >
  <font-face
    font-family="iconfont"
    font-weight="500"
    font-stretch="normal"
    units-per-em="1024"
    ascent="896"
    descent="-128"
  />
    <missing-glyph />
    
    <glyph glyph-name="shezhi" unicode="&#58940;" d="M942.954149 212.402943l-69.00563 40.181141c3.871167 21.093411 6.411013 42.620703 6.411013 64.87352 0 22.222117-2.539846 43.779086-6.411013 64.872496l69.00563 40.181141c28.184923 16.393365 37.8347 52.745295 21.556968 81.150228L905.586077 606.597887c-16.262382 28.404933-52.308343 38.151925-80.496335 21.731954l-69.703525-40.561811c-32.56672 27.941376-69.584821 50.77236-110.74015 65.481364l0 50.42546c0 32.813337-26.372647 59.418274-58.925041 59.418274L467.86992 763.093127c-32.552393 0-58.925041-26.604938-58.925041-59.418274l0-50.42546c-41.156352-14.709003-78.17343-37.539988-110.741173-65.481364l-69.703525 40.561811c-28.187993 16.419971-64.233953 6.67298-80.496335-21.731954L89.078805 503.66147c-16.274662-28.404933-6.616698-64.756863 21.556968-81.150228l69.00563-40.181141c-3.871167-21.093411-6.411013-42.649356-6.411013-64.872496 0-22.251793 2.539846-43.780109 6.411013-64.87352l-69.00563-40.181141c-28.172643-16.393365-37.83163-52.745295-21.556968-81.150228l58.925041-102.936417c16.262382-28.404933 52.308343-38.151925 80.496335-21.731954l69.703525 40.561811c32.56672-27.941376 69.584821-50.80306 110.741173-65.481364L408.944879-68.759645c0-32.81436 26.372647-59.418274 58.925041-59.418274l117.850082 0c32.552393 0 58.925041 26.603915 58.925041 59.418274l0 50.424436c41.156352 14.679327 78.17343 37.539988 110.74015 65.481364l69.703525-40.561811c28.187993-16.419971 64.233953-6.67298 80.496335 21.731954l58.925041 102.936417C980.787826 159.657648 971.139072 196.009578 942.954149 212.402943zM898.752438 135.227236l-29.462009-51.468209c-8.137331-14.21577-26.155706-19.061125-40.255843-10.879792l-81.857333 47.668673c-41.548278-47.261397-97.701183-81.150228-161.457252-94.204545l0-65.395406c0-16.420995-13.1853-29.708626-29.462009-29.708626l-58.925041 0c-16.277732 0-29.462009 13.288654-29.462009 29.708626l0 65.395406c-63.756069 13.054317-119.908974 46.943149-161.457252 94.204545l-81.857333-47.668673c-14.100136-8.182356-32.118512-3.335978-40.255843 10.879792l-29.463032 51.468209c-8.137331 14.189164-3.306302 32.379455 10.778484 40.558741l82.192977 47.873334c-9.792017 29.53364-15.653515 60.927651-15.653515 93.798293 0 32.869618 5.861498 64.233953 15.653515 93.797269l-82.192977 47.843658c-14.084787 8.208962-18.915815 26.372647-10.778484 40.588417l29.463032 51.468209c8.137331 14.189164 26.155706 19.061125 40.255843 10.879792l81.857333-47.668673c41.548278 47.264467 97.701183 81.150228 161.457252 94.204545L467.870944 673.966227c0 16.419971 13.1853 29.708626 29.462009 29.708626l58.925041 0c16.277732 0 29.462009-13.289678 29.462009-29.708626l0-65.396429c63.756069-13.054317 119.908974-46.940079 161.457252-94.204545l81.857333 47.668673c14.100136 8.182356 32.118512 3.309372 40.255843-10.879792l29.462009-51.468209c8.137331-14.21577 3.306302-32.379455-10.778484-40.588417l-82.192977-47.843658c9.792017-29.563316 15.653515-60.927651 15.653515-93.797269 0-32.870642-5.861498-64.264653-15.653515-93.798293l82.192977-47.873334C902.05874 167.607714 906.889769 149.4164 898.752438 135.227236zM526.794961 466.002778c-81.367169 0-147.31209-66.49853-147.31209-148.545174 0-82.047668 65.944921-148.545174 147.31209-148.545174s147.32744 66.497507 147.32744 148.545174C674.122401 399.504248 608.16213 466.002778 526.794961 466.002778zM526.794961 228.330704c-48.814776 0-88.38705 39.892569-88.38705 89.1269 0 49.206702 39.572274 89.1269 88.38705 89.1269s88.38705-39.920198 88.38705-89.1269C615.182011 268.223273 575.609737 228.330704 526.794961 228.330704z"  horiz-adv-x="1024" />

    
    <glyph glyph-name="weibo-copy" unicode="&#58963;" d="M423.469 299.933c-15.798 6.596-36.202-0.202-45.936-15.419-9.864-15.289-5.234-33.49 10.433-40.606 15.916-7.236 37.030-0.367 46.883 15.311 9.698 15.845 4.595 33.927-11.38 40.714zM462.381 316.015c-6.052 2.392-13.63-0.509-17.182-6.443-3.446-5.969-1.539-12.766 4.523-15.264 6.17-2.534 14.069 0.402 17.621 6.477 3.411 6.098 1.196 12.979-4.961 15.229zM437.75 421.516c-101.925-10.054-179.23-72.261-172.598-138.931 6.62-66.719 94.619-112.643 196.567-102.611 101.948 10.054 179.23 72.26 172.611 138.991-6.608 66.671-94.606 112.595-196.579 102.552zM527.205 264.205c-20.806-46.895-80.656-71.894-131.423-55.575-49.002 15.761-69.761 63.995-48.292 107.444 21.055 42.596 75.896 66.683 124.402 54.106 50.223-12.931 75.848-60.134 55.314-105.975zM512 834c-248.519 0-450-201.47-450-450 0-248.519 201.481-450 450-450 248.53 0 450 201.481 450 450 0 248.53-201.47 450-450 450zM462.37 135.292c-127.752 0-258.348 61.698-258.348 163.184 0 53.052 33.739 114.419 91.823 172.327 77.566 77.281 168.016 112.489 202.039 78.573 15.016-14.945 16.473-40.831 6.821-71.74-5.032-15.548 14.648-6.94 14.648-6.975 62.704 26.159 117.391 27.698 137.393-0.757 10.67-15.157 9.627-36.45-0.19-61.094-4.548-11.356 1.398-13.121 10.077-15.715 35.314-10.919 74.641-37.315 74.641-83.83-0.023-76.998-111.423-173.973-278.905-173.973zM693.646 458.002c4.145 12.706 1.552 27.214-8.089 37.848-9.627 10.61-23.85 14.648-36.948 11.89v0.023c-10.954-2.369-21.73 4.63-24.075 15.525-2.345 10.954 4.642 21.706 15.596 24.027 26.834 5.684 55.895-2.581 75.577-24.359 19.729-21.766 25.010-51.406 16.567-77.4-3.434-10.634-14.886-16.46-25.544-13.050-10.67 3.446-16.508 14.873-13.073 25.484h-0.011zM811.936 419.917c-0.011-0.011-0.011-0.071-0.011-0.095-4.015-12.327-17.325-19.077-29.689-15.086-12.423 4.002-19.207 17.219-15.205 29.594v0.011c12.304 37.942 4.5 81.236-24.229 112.998-28.752 31.748-71.148 43.875-110.309 35.585-12.73-2.711-25.271 5.389-27.983 18.083-2.723 12.659 5.4 25.165 18.143 27.877h0.023c55.043 11.664 114.714-5.377 155.167-50.069 40.441-44.621 51.348-105.502 34.094-158.898z"  horiz-adv-x="1024" />

    
    <glyph glyph-name="phonedateicon27" unicode="&#58934;" d="M419.168313 212.553916M895.561897 446.457943 859.202841 446.457943c-16.608243 0-34.213185 12.990859-39.189518 28.868462l-20.801748 50.609604c-7.806795 14.670103-4.661155 36.259796 7.075132 48.047248l25.775011 25.670634c11.788476 11.839641 11.788476 31.070615 0 42.806902l-42.802809 42.699455c-11.788476 11.788476-31.01945 11.788476-42.754714 0l-25.775011-25.670634c-11.736287-11.736287-33.377145-14.986304-48.047248-7.075132l-50.557416 20.801748c-15.825415 4.925168-28.868462 22.580252-28.868462 39.189518l0 36.306868c0 16.608243-13.623262 30.231505-30.231505 30.231505l-60.410821 0c-16.659408 0-30.283693-13.623262-30.283693-30.231505l0-36.306868c0-16.660432-12.938671-34.316539-28.868462-39.241707l-50.609604-20.749559c-14.670103-7.858984-36.203514-4.661155-47.994036 7.075132l-25.776034 25.722822c-11.73424 11.788476-30.965215 11.788476-42.701502 0l-42.751644-42.699455c-11.787452-11.788476-11.787452-31.01945 0-42.754714l25.670634-25.722822c11.792569-11.788476 14.987328-33.377145 7.128344-48.047248l-20.854959-50.661793c-4.924145-15.877603-22.579229-28.868462-39.189518-28.868462l-36.253656 0c-16.662478 0-30.284717-13.571073-30.284717-30.231505l0-60.410821c0-16.660432 13.622239-30.231505 30.231505-30.231505l36.305844 0c16.609266-0.052189 34.214209-13.043048 39.139376-28.920651l20.905101-50.609604c7.806795-14.670103 4.665248-36.363149-7.128344-48.047248l-25.720776-25.670634c-11.73731-11.839641-11.73731-31.070615 0-42.806902l42.801786-42.75062c11.73731-11.788476 30.968285-11.788476 42.701502 0l25.776034 25.722822c11.684098 11.736287 33.271744 14.934116 47.887612 7.022943l50.717051-20.801748c15.929792-4.976333 28.868462-22.580252 28.868462-39.189518l0-36.151325c0-16.608243 13.623262-30.231505 30.283693-30.231505l60.410821 0c16.557078 0 30.231505 13.623262 30.231505 30.231505l0 36.151325c0 16.608243 13.043048 34.213185 28.868462 39.189518l50.661793 20.801748c14.617914 7.910149 36.310961 4.71232 48.047248-7.022943l25.618445-25.722822c11.788476-11.788476 31.01945-11.788476 42.754714 0l42.802809 42.75062c11.788476 11.788476 11.788476 31.01945 0 42.806902l-25.778081 25.670634c-11.736287 11.684098-14.877834 33.377145-7.071039 48.047248l20.801748 50.609604c4.976333 15.877603 22.632441 28.868462 39.189518 28.868462l36.306868 0c16.557078 0 30.179316 13.571073 30.179316 30.231505l0 60.46301C925.742237 432.88687 912.118975 446.457943 895.561897 446.457943zM532.7777 170.477654c-119.148538 0-215.640076 96.422977-215.640076 215.567422 0 119.07486 96.567263 215.569468 215.640076 215.569468 119.07179 0 215.567422-96.494608 215.567422-215.569468C748.345122 266.90063 651.84949 170.477654 532.7777 170.477654z"  horiz-adv-x="1024" />

    
    <glyph glyph-name="weixin" unicode="&#58973;" d="M1024 236.8c0 147.2-147.2 262.4-307.2 262.4-172.8 0-307.2-115.2-307.2-262.4 0-147.2 134.4-262.4 307.2-262.4 38.4 0 70.4 6.4 108.8 19.2l102.4-51.2L896 25.6C972.8 83.2 1024 153.6 1024 236.8zM614.4 281.6c-19.2 0-38.4 19.2-38.4 38.4 0 19.2 19.2 38.4 38.4 38.4 25.6 0 44.8-19.2 44.8-38.4C659.2 300.8 646.4 281.6 614.4 281.6zM812.8 281.6c-19.2 0-38.4 19.2-38.4 38.4 0 19.2 19.2 38.4 38.4 38.4 25.6 0 44.8-19.2 44.8-38.4C864 300.8 844.8 281.6 812.8 281.6zM364.8 768C166.4 768 0 633.6 0 460.8c0-102.4 51.2-179.2 147.2-243.2l-38.4-108.8 128 64c44.8-6.4 83.2-19.2 128-19.2 12.8 0 25.6 0 32 0C390.4 179.2 384 204.8 384 230.4c0 160 134.4 288 307.2 288 12.8 0 25.6 0 32 0C697.6 659.2 537.6 768 364.8 768zM243.2 524.8C217.6 524.8 192 544 192 569.6c0 25.6 25.6 44.8 57.6 44.8s44.8-19.2 44.8-44.8C288 544 268.8 524.8 243.2 524.8zM499.2 524.8c-25.6 0-57.6 19.2-57.6 44.8 0 25.6 25.6 44.8 57.6 44.8 25.6 0 44.8-19.2 44.8-44.8C544 544 524.8 524.8 499.2 524.8z"  horiz-adv-x="1024" />

    
    <glyph glyph-name="shuaxin" unicode="&#59042;" d="M801.702 319.088c-7.244-151.545-133.354-272.206-287.869-272.206-159.174 0-288.214 128.042-288.214 285.983 0 153.307 121.559 278.418 274.246 285.649v-136.004l301.938 163.42-301.939 190.653v-136.228c-198.15-7.328-356.512-169.039-356.512-367.433 0-203.081 165.9-367.697 370.557-367.697 199.994 0 362.973 157.195 370.303 353.863l-82.508-0.001zM801.702 319.088z"  horiz-adv-x="1024" />

    
    <glyph glyph-name="home" unicode="&#58920;" d="M979.84 491.456 574.272 812c-34.912 27.648-89.696 27.616-124.576 0L44.16 491.456c-13.856-10.976-16.224-31.104-5.28-44.96s30.624-16.224 44.48-5.28L96 451.584 96 64c0-54.944 57.888-96 108.8-96l640 0c50.304 0 83.2 38.592 83.2 96L928 450.08l11.68-8.864c5.888-4.64 13.12-6.88 20.064-6.88 9.44 0 18.912 4.16 25.216 12.16C995.936 460.352 993.728 480.48 979.84 491.456zM480 32l0 177.408c0 8.832 16 13.248 32 13.248s32-4.416 32-13.248L544 32 480 32zM864 64c0-21.216-5.856-32-19.2-32L608.64 32c0 0.48-0.64 0.864-0.64 1.344l0 176.064c0 37.216-30.016 77.28-96 77.28s-96-40.064-96-77.28l0-176.064c0-0.48 0.864-0.864 0.864-1.344L204.8 32C184.736 32 160 49.344 160 64L160 502.176l328.928 259.616c11.808 9.344 33.12 9.344 44.96 0L864 500.672 864 64z"  horiz-adv-x="1024" />

    
    <glyph glyph-name="qq" unicode="&#59263;" d="M874.496 427.4688c2.5088 87.5008-7.1168 250.88-102.6048 360.9088-62.0544 71.8336-150.1184 107.8272-261.5808 107.264C399.7696 896.2048 312.2176 860.3648 250.3168 788.8896c-95.4368-110.4384-105.1136-275.8144-102.4-364.544l3.072 9.7792c-62.208-81.2032-109.7728-274.2272-98.304-309.0432 3.1232-9.728 9.8304-11.9296 12.4416-12.3392 38.656-6.7072 72.7552 8.448 104.6016 46.6432l4.9152 5.2736-6.144-0.768-5.3248 3.9936 1.8944-5.5296c4.4544-13.6192 39.7824-88.2688 49.7152-105.5232l2.6624-6.2464 1.6384 4.4544-5.7856-2.1504c-17.408-3.6352-42.7008-19.1488-59.9552-45.5168-14.4384-21.8112-13.056-41.3696-9.5744-53.8112 7.168-24.8832 29.952-45.6192 64-57.8048 138.1376-50.0736 240.5376-5.9904 265.216 5.8368 27.8528 13.2608 54.272 10.8544 77.312-1.2288 31.5904-16.5888 147.2512-49.6128 270.3872-1.2288 31.1296 12.0832 51.8656 31.488 58.4192 54.1696 4.7104 16.384 1.8432 33.1776-8.1408 48.7424-17.8176 28.2624-37.5296 43.9296-65.4848 52.0704l-5.632 2.048 2.6624-8.6528 2.0992 3.6864c11.264 17.6128 44.2368 91.648 48.4864 102.8096l0.8192 2.3552 3.328 7.936-5.12-2.5088-5.4272 1.536 1.3312-1.8944c19.0464-30.8736 72.9088-65.4848 110.4896-47.6672 4.5056 2.2528 10.24 6.9632 12.9536 18.5856 12.3392 51.968-51.2 233.3184-99.6864 304.2816L874.496 427.4688"  horiz-adv-x="1024" />

    
    <glyph glyph-name="yonghu1" unicode="&#58983;" d="M511.934 806.4c52.61 0 102.145-20.095 139.135-56.575 36.8-36.16 57.090-84.29 56.96-135.425 0-105.855-88-192-196.095-192s-196.16 86.145-196.16 192c0 51.072 20.16 99.135 57.090 135.36 36.99 36.545 86.4 56.64 139.070 56.64M620.288 255.172c150.14 0 272.254-119.62 272.319-266.624v-11.455c-40.065-20.61-189.825-20.61-272.319-20.61h-216.704c-94.592 0-234.817 0-272.192 19.455v12.61c0 147.005 122.047 266.624 272.192 266.624h216.704M511.934 870.4c-143.742 0-260.222-114.56-260.159-255.999 0-141.312 116.417-255.999 260.159-255.999 143.745 0 260.094 114.687 260.094 255.999 0.13 141.439-116.35 255.999-260.094 255.999v0zM620.288 319.171h-216.704c-185.665 0-336.192-148.035-336.192-330.624v-21.375c0-74.625 150.527-74.69 336.192-74.69h216.894c185.6 0 336.189 2.75 336.189 74.69v21.375c-0.124 182.59-150.589 330.624-336.379 330.624v0z"  horiz-adv-x="1024" />

    
    <glyph glyph-name="xinfeng" unicode="&#58989;" d="M657.824 371.90016l361.29664 355.08352c-8.23552 17.20576-25.8048 29.09056-46.15424 29.09056L52.40832 756.07424c-20.34944 0-37.91872-11.8848-46.15424-29.09056l361.29664-355.08352C447.7056 321.36704 577.66784 321.36704 657.824 371.90016zM1.26592 656.43904l0-569.84192 300.31104 285.64992L1.26592 656.43904zM723.79648 372.24704l300.31104-285.64992L1024.10752 656.43904 723.79648 372.24704zM676.75392 327.72864c-90.6112-57.504-237.52192-57.504-328.13312 0l-13.5296 12.80256L7.04768 16.47232c8.53248-16.35584 25.63584-27.52896 45.36064-27.52896L972.9664-11.05664c19.7248 0 36.82944 11.17312 45.36064 27.52896L690.28352 340.53248 676.75392 327.72864z"  horiz-adv-x="1025" />

    
    <glyph glyph-name="shezhi1" unicode="&#58884;" d="M895.4628 348.351851c1.128285 11.689852 1.82368 23.430881 1.82368 35.335673 0 11.905997-0.695394 23.652444-1.82368 35.33748l89.604742 70.838723c19.413849 15.874261 24.400821 43.223434 11.958979 64.830635l-95.555031 167.201134c-12.119733 21.233916-38.072698 31.425208-62.635476 21.985303l-104.994935-42.686987c-19.250085 13.839254-39.415321 25.687451-60.166977 35.394075l-15.924835 113.469115c-3.75513 24.55736-25.308145 43.05967-50.085864 43.05967H416.49735c-25.099828 0-46.17299-18.073032-50.143663-43.432956l-15.867638-113.095829c-20.80825-9.7578-40.96867-21.611416-60.221765-35.394075l-105.259847 42.851353c-22.686116 8.79087-50.144265-0.915753-62.259181-22.149067L27.186613 554.750957c-12.442444-21.770965-7.450053-49.120138 12.27868-65.153346L128.699157 419.025004c-1.129489-11.63386-1.825486-23.431483-1.825485-35.33748 0-11.904792 0.695997-23.698201 1.825485-35.335673L38.984237 277.511321c-19.247677-15.924835-24.240067-43.217413-11.797624-64.77404l95.609819-167.308303c12.170909-21.182138 38.718722-31.37042 62.580688-21.878736l104.993731 42.686987c19.304874-13.838049 39.470712-25.688053 60.165773-35.342899l15.925437-113.628062c3.918894-24.935462 24.991455-43.001871 50.035289-43.001871h191.115479c24.771698 0 46.274741 18.496891 50.192431 43.432955l15.868842 113.145802c20.751655 9.757198 40.916892 21.556025 60.166977 35.394075l105.26647-42.901325c5.896102-2.306542 12.06374-3.431817 18.393937-3.431817 18.015233 0 34.851607 9.757198 43.970004 25.580282l95.395481 167.087944c12.49362 21.556627 7.664391 48.9058-12.228708 65.367082l-89.175463 70.412456z m-36.463958-275.19921l-118.99133 48.424142c-8.897437 3.697933-18.983367 2.251152-26.542395-3.646155-23.488078-18.231979-48.581885-32.980363-74.642019-43.812262-8.74451-3.646155-14.907933-11.690454-16.254772-21.075571l-17.528155-125.208337-185.598081-2.738229-17.907462 127.946566c-1.288437 9.385116-7.50725 17.372219-16.24875 21.075571-25.845194 10.724127-50.996198 25.523687-74.642622 43.812262-4.772634 3.646155-10.566986 5.575197-16.410708 5.575197a26.518312 26.518312 0 0 1-10.081112-1.985637l-114.807524-49.494026-96.576749 163.770521 100.918298 79.680769c7.401285 5.845528 11.155211 15.178264 9.973342 24.506184-1.927838 14.376905-3.160884 28.904328-3.160884 43.703888 0 14.801366 1.233046 29.334208 3.109708 43.597321 1.233046 9.384514-2.52088 18.660655-9.973342 24.50498L73.734093 528.097178l91.427217 166.125831 118.884161-48.367547a26.742885 26.742885 0 0 1 26.541793 3.595581c23.544673 18.231377 48.746853 33.030335 74.806385 43.969403 8.7415 3.646155 14.852543 11.635666 16.196972 21.019578l14.906729 125.050594 188.221314 2.736422 17.907462-127.895991c1.290243-9.382708 7.508454-17.371617 16.248148-21.017772 25.953567-10.831898 51.103367-25.57968 74.698614-43.862234 7.615021-5.84613 17.696134-7.241736 26.542395-3.646757l114.808126 49.441044 96.633343-163.661546-100.973689-79.794561c-7.401887-5.844324-11.211806-15.120465-10.030539-24.448385 1.827894-14.371486 3.166303-28.903124 3.166303-43.70449 0-14.79956-1.289039-29.333606-3.166303-43.705093-1.181268-9.332736 2.628651-18.608877 10.030539-24.454405l99.8442-76.198378-91.428421-166.125831z m0 0M512.159549 585.854056c-110.568929 0-200.498187-90.68185-200.498187-202.166532 0-111.426883 89.928657-202.159909 200.498187-202.159909 110.573143 0 200.447011 90.677034 200.447011 202.159909 0 111.484682-89.929861 202.166532-200.447011 202.166532z m0-350.701592c-80.969206 0-146.872736 66.599526-146.872735 148.53506 0 81.942156 65.90353 148.54108 146.872735 148.54108 80.973421 0 146.821559-66.655519 146.82156-148.54108 0.000602-81.879541-65.90353-148.53506-146.82156-148.53506z m0 0"  horiz-adv-x="1024" />

    
    <glyph glyph-name="shezhi2" unicode="&#58939;" d="M950.159248 470.36909c-4.841262 25.585725-20.152992 41.992393-38.827307 41.577954h-3.889587c-64.153112 0-116.345822 52.192709-116.345821 116.346845 0 21.137413 10.047844 44.321438 10.121521 44.49233 9.907651 22.309098 2.284019 49.666166-17.730826 63.636343l-1.105171 0.771572-111.877043 62.155619-1.172709 0.509606c-6.627954 2.880607-13.904685 4.341888-21.62553 4.341889-15.926738 0-31.55774-6.359848-41.788755-16.983813-13.663184-14.102183-56.733119-50.697659-91.478458-50.697659-35.07382 0-78.409814 37.33328-92.120071 51.689242-10.289344 10.842952-26.033933 17.315364-42.116213 17.315364-7.568373 0-14.712073-1.410116-21.234627-4.190438l-1.204431-0.5137-115.836215-63.624063-1.136893-0.791016c-20.064988-13.94357-27.718295-41.298592-17.830088-63.568804 0.102331-0.232291 10.145058-23.409153 10.145058-44.543496 0-64.154135-52.191686-116.346845-116.345821-116.346844h-3.890611c-18.698874 0.442068-33.987069-15.994276-38.827307-41.580001-0.382717-2.022053-9.365298-49.945529-9.365298-87.701435 0-37.756929 8.984628-85.679381 9.367345-87.701434 4.779863-25.263383 19.741623-41.587164 38.119179-41.587164 0.23536 0 0.470721 0.00307 0.707105 0.008187h3.889587c64.153112 0 116.345822-52.193733 116.345821-116.346845 0-21.138436-10.047844-44.321438-10.122545-44.494377-9.899464-22.291702-2.295276-49.649793 17.686824-63.637366l1.089822-0.762363 109.758799-61.375859 1.157359-0.50756c6.614651-2.907213 13.860682-4.380774 21.538549-4.380774 16.121166 0 31.831986 6.616698 42.027186 17.699104 12.866029 13.985526 57.662281 53.909817 93.522 53.909817 36.109406 0 80.224136-39.695071 94.14724-54.959729 10.219759-11.273764 26.040073-18.006096 42.318828-18.007119h0.00307c7.521301 0 14.638395 1.422396 21.147646 4.230348l1.188058 0.512676 113.765044 62.879096 1.12052 0.780783c20.035312 13.959943 27.6702 41.315988 17.788132 63.571874-0.102331 0.232291-10.144034 23.408129-10.144035 44.542472 0 64.153112 52.192709 116.346845 116.345822 116.346845h3.888563c18.678408-0.382717 33.985022 15.992229 38.827307 41.578977 0.382717 2.022053 9.367345 49.944506 9.367345 87.701435-0.002047 37.757952-8.986675 85.680405-9.368368 87.703481zM898.576429 305.856245c-89.106434-4.629437-160.182212-78.580706-160.182212-168.818916 0-30.175253 11.734252-59.101049 14.298657-65.061808l-106.290815-58.748009a4.451382 4.451382 0 0 0-0.171915-0.00307c-1.5104 0-2.946099 0.564865-3.453658 0.898463-1.914606 2.087545-17.286712 18.59859-39.464827 35.068703-33.06507 24.551162-64.539922 37.000706-93.548606 37.000706-28.735461 0-59.972906-12.216229-92.844572-36.306904-22.051225-16.162098-37.365003-32.367175-39.280631-34.427091-0.503467-0.325411-1.924839-0.874927-3.423983-0.874927-0.082888 0-0.159636 0.002047-0.226151 0.005117l-102.508675 57.320497c2.51631 5.836939 14.329357 34.855856 14.329357 65.130369 0 90.23821-71.075779 164.18948-160.182213 168.818917-1.286296 7.099698-8.246825 46.921659-8.246824 76.807317 0 29.889751 6.960529 69.719898 8.244778 76.807316 89.106434 4.629437 160.184259 78.580706 160.184259 168.818917 0 30.117948-11.691273 58.993602-14.285355 65.029062l108.307752 59.488883c0.106424 0.007163 0.231267 0.011256 0.37453 0.011256 1.796926 0 3.480264-0.668219 4.037966-1.048889 1.75804-1.835811 16.98586-17.500583 38.890752-33.113165 32.435737-23.12058 63.155389-34.843576 91.305519-34.843576 27.877931 0 58.354036 11.495822 90.582041 34.170241 21.770839 15.315824 36.930097 30.686906 38.684045 32.490995 0.552585 0.37146 2.218528 1.020236 4.001127 1.020236 0.169869 0 0.315178-0.00614 0.435928-0.014326l104.565521-58.096163c-2.544963-5.91164-14.314007-34.879392-14.314007-65.095577 0-90.23821 71.076802-164.18948 160.183235-168.818917 1.285273-7.099698 8.245801-46.921659 8.245802-76.807317 0-29.893844-6.963599-69.729108-8.246825-76.80834zM510.140653 538.193825c-85.435835 0-154.943908-69.50705-154.943908-154.943908s69.50705-154.943908 154.943908-154.943908 154.943908 69.508074 154.943908 154.943908c0 85.436858-69.508074 154.943908-154.943908 154.943908z m0-257.184477c-56.375985 0-102.241592 45.865607-102.241593 102.241592s45.865607 102.241592 102.241593 102.241592c56.377008 0 102.241592-45.865607 102.241592-102.241592s-45.865607-102.241592-102.241592-102.241592z"  horiz-adv-x="1024" />

    
    <glyph glyph-name="fuzhi1" unicode="&#58887;" d="M677.322 663.837h-503.083c-61.739 0-111.796-50.057-111.796-111.796v-503.083c0-61.739 50.057-111.796 111.796-111.796h503.083c61.739 0 111.796 50.057 111.796 111.796v503.083c0 61.739-50.057 111.796-111.796 111.796zM733.22 48.958c0-30.842-25.056-55.898-55.898-55.898h-503.083c-30.815 0-55.898 25.056-55.898 55.898v503.083c0 30.842 25.083 55.898 55.898 55.898h503.083c30.842 0 55.898-25.056 55.898-55.898v-503.083zM230.137 440.245h391.287v55.898h-391.287v-55.898zM230.137 328.45h391.287v55.898l-391.287-0v-55.898zM230.137 216.653h391.287v55.898h-391.287v-55.898zM230.137 104.856h223.592v55.898h-223.592v-55.898zM845.016 831.532h-503.083c-61.739 0-111.796-50.057-111.796-111.796h55.898c0 30.842 25.083 55.898 55.898 55.898h503.083c30.842 0 55.898-25.056 55.898-55.898v-503.083c0-30.842-25.056-55.898-55.898-55.898v-55.898c61.739 0 111.796 50.057 111.796 111.796v503.083c0 61.739-50.057 111.796-111.796 111.796z"  horiz-adv-x="1024" />

    
    <glyph glyph-name="youjian" unicode="&#58922;" d="M953.065 680.086C912.491 751.695 856.942 805.553 786.541 841.78S636.803 896 548.408 896C434.414 896 337.325 870.278 257.384 819.078c-79.941-51.201-141.648-125.346-185.121-221.831-35.623-78.734-53.374-161.573-53.374-248.518 0-78.009 14.974-150.705 44.921-217.967 23.91-53.133 59.292-100.107 106.387-140.924 46.974-40.815 103.972-71.367 170.75-91.654s138.508-30.068 217.363-24.755c86.462 5.796 105.783 14.37 177.513 26.808l-1.449 69.436c-211.566-60.017-344.641-7.366-416.491 22.702-71.85 30.068-125.829 76.561-163.867 139.596-37.918 63.155-56.514 138.146-56.514 225.453 0 83.443 19.2 161.453 57.118 234.269 37.917 72.937 91.413 128.848 160.365 167.853 68.952 39.004 145.15 58.567 228.472 58.567 73.059 0 139.837-15.578 200.216-46.491 60.378-31.035 105.903-72.333 136.335-124.018 30.431-51.684 45.646-107.232 45.646-166.766 0-50.959-11.834-100.47-35.502-148.29-23.669-47.94-55.79-86.1-96.485-114.598-30.672-21.737-55.428-32.605-74.266-32.605-10.385 0-19.2 3.502-26.445 10.506-7.366 6.884-10.989 15.216-10.989 24.756 0 5.434 5.313 35.865 16.061 85.737l77.043 361.426h-95.64l-18.113-85.738c-20.287 33.087-44.56 56.394-72.696 72.575-28.136 16.181-57.722 23.547-88.756 23.547-40.574 0-82.478-14.611-125.588-43.11S295.062 563.677 266.08 506.8c-28.981-56.877-43.593-113.633-43.593-170.268 0-46.009 9.298-88.273 28.016-126.675 18.717-38.521 42.99-67.02 72.938-85.496 29.948-18.596 60.741-27.773 92.5-27.773 28.861 0 57.602 8.091 86.342 24.271 28.74 16.182 54.582 37.677 77.768 64.364 2.174-21.736 5.555-37.072 10.144-45.888 7.125-13.888 18.234-24.635 33.449-32.122 15.095-7.486 35.02-11.229 59.654-11.229 76.923 0 147.807 35.985 212.774 107.956 72.695 80.184 109.043 171.959 109.043 275.327-0.245 72.212-17.513 139.233-52.05 200.819zM611.443 336.17c-12.8-36.227-29.344-66.054-49.51-89.48-20.167-23.548-41.179-41.3-63.277-53.134-22.099-11.955-43.11-17.872-63.035-17.872-29.947 0-56.514 13.524-79.579 40.574-23.186 27.05-34.778 64.968-34.778 113.874 0 30.673 5.676 64.243 17.147 101.074 11.351 36.71 26.567 67.866 45.405 93.587s38.4 44.318 58.446 55.911c20.167 11.592 41.541 17.389 64.363 17.389 34.537 0 63.881-13.404 87.911-40.091 24.031-26.687 36.106-64.243 36.106-112.787 0.123-36.591-6.278-72.939-19.199-109.045z"  horiz-adv-x="1024" />

    
    <glyph glyph-name="xing1" unicode="&#58889;" d="M512.632238 24.38549999999998a97.772683 97.772683 0 0 1-46.206902-9.304897L219.784309-119.04519400000004c-23.507305-12.752035-38.818748-0.972751-34.158798 26.32303l48.753808 286.790119a110.259649 110.259649 0 0 1-25.605345 84.654304L10.990531 483.572522c-18.846104 19.461263-12.854561 38.35863 13.365942 42.148356l275.319664 40.047815a102.421381 102.421381 0 0 1 68.623925 51.416993l124.600844 260.262036C498.271039 888.651857 505.064039 894.770933 511.974568 895.832457M511.381916 24.38549999999998a97.772683 97.772683 0 0 0 46.206901-9.304897l246.639777-134.125797c23.507305-12.752035 38.818748-0.972751 34.158798 26.32303l-48.753807 286.790119a110.259649 110.259649 0 0 0 25.605345 84.654304l197.783443 204.850263c18.846104 19.461263 12.854561 38.35863-13.365943 42.148356l-275.319664 40.047815a102.421381 102.421381 0 0 0-68.623925 51.416993L531.111998 877.447722C525.741864 888.651857 518.948865 894.770933 512.038335 895.832457"  horiz-adv-x="1025" />

    
    <glyph glyph-name="qi" unicode="&#58929;" d="M763.9771428125 555.3828571875l156.6628575-303.1771425H188.38857125000004V-96H100.5714284375V864h822.857143125l-159.45142875-308.6171428125z"  horiz-adv-x="1024" />

    
    <glyph glyph-name="xing" unicode="&#58975;" d="M545.8 809.3l107.4-229c5.7-12.1 16.6-20.4 29.2-22.4l240.1-36.7c31.8-4.9 44.6-46.1 21.5-69.7L770.3 273.2c-9.2-9.4-13.3-22.9-11.2-36.2l41-251.7c5.4-33.4-27.9-58.8-56.3-43.1L529 61.1c-11.3 6.3-24.8 6.3-36.1 0L278.1-57.8c-28.5-15.8-61.8 9.7-56.3 43.1l41 251.7c2.2 13.3-2 26.8-11.2 36.2L77.9 451.5c-23 23.6-10.3 64.8 21.5 69.7l240.1 36.7c12.6 1.9 23.6 10.3 29.2 22.4l107.4 229c14.3 30.4 55.5 30.4 69.7 0z"  horiz-adv-x="1024" />

    
    <glyph glyph-name="phoneBook" unicode="&#58888;" d="M409.6 369.664c-79.872 40.96-135.168 122.88-135.168 219.136 0 135.168 110.592 245.76 245.76 245.76s245.76-110.592 245.76-245.76c0-96.256-55.296-178.176-135.168-219.136 184.32-49.152 319.488-217.088 319.488-415.744 0-12.288-8.192-20.48-20.48-20.48s-20.48 8.192-20.48 20.48c0 215.04-174.08 389.12-389.12 389.12s-389.12-174.08-389.12-389.12c0-12.288-8.192-20.48-20.48-20.48s-20.48 8.192-20.48 20.48c0 198.656 135.168 366.592 319.488 415.744zM520.192 384c112.64 0 204.8 92.16 204.8 204.8s-92.16 204.8-204.8 204.8-204.8-92.16-204.8-204.8 92.16-204.8 204.8-204.8z"  horiz-adv-x="1024" />

    
    <glyph glyph-name="new" unicode="&#58890;" d="M2096.760137 192.768717V-25.598464a103.039614 103.039614 0 0 0-103.615611-102.399616H103.615611A103.039614 103.039614 0 0 0 0-25.598464V793.598464A102.975614 102.975614 0 0 0 103.615611 895.99808h1889.528915a102.975614 102.975614 0 0 0 103.615611-102.399616v-294.846894C2096.760137 445.37577 2303.99136 332.800192 2303.99136 332.800192s-207.231223-95.99964-207.231223-140.031475z m-1375.99484 192.831277a208.703217 208.703217 0 0 1-38.399856 135.807491 136.959486 136.959486 0 0 1-112.06358 46.591825 161.791393 161.791393 0 0 1-147.199448-83.583687h-1.663993V557.567349H342.142717V115.201008h79.295703V367.616061a142.143467 142.143467 0 0 0 33.599874 97.151636 108.799592 108.799592 0 0 0 85.823678 38.399856q100.799622 0 100.799622-136.447488v-251.519057h78.911704V385.599994z m504.318109-29.631889a227.903145 227.903145 0 0 1-49.343815 156.223414 173.823348 173.823348 0 0 1-137.215485 55.807791 191.99928 191.99928 0 0 1-148.351444-65.983753 240.447098 240.447098 0 0 1-59.711776-167.615371 244.031085 244.031085 0 0 1 54.463796-168.767367 192.767277 192.767277 0 0 1 151.551431-60.799772 268.798992 268.798992 0 0 1 156.671413 41.151846v70.015737l-138.047483-47.615821a137.727484 137.727484 0 0 0-103.99961 38.399856 158.079407 158.079407 0 0 0-39.295852 109.439589h313.278825v39.551852z m598.269756 201.599244l-87.423672-328.382768a182.399316 182.399316 0 0 1-7.295972-40.767848h-3.647987a239.679101 239.679101 0 0 1-6.399976 40.767848l-93.887648 328.382768h-73.279725l-95.99964-326.782774a184.191309 184.191309 0 0 1-7.743971-41.599844h-3.199988a229.631139 229.631139 0 0 1-6.079977 40.447848l-89.599664 327.93477h-82.55969l134.399496-442.366341h80.127699l95.99964 311.230833a179.647326 179.647326 0 0 1 9.343965 41.599844h1.599994a211.199208 211.199208 0 0 1 7.295973-42.431841l89.023666-310.398836h82.55969l133.631499 442.366341h-76.799712zM955.324418 470.015677a111.99958 111.99958 0 0 0 81.983692 34.81587 99.711626 99.711626 0 0 0 79.743701-32.831877 139.199478 139.199478 0 0 0 28.735892-92.799652h-233.983122a161.087396 161.087396 0 0 0 43.263837 90.815659z"  horiz-adv-x="2304" />

    
    <glyph glyph-name="fuzhi" unicode="&#59208;" d="M889.6 896H345.6c-44.8 0-83.2-38.4-83.2-83.2V768H768c44.8 0 83.2-38.4 83.2-83.2v-595.2h44.8c44.8 0 83.2 38.4 83.2 83.2v640C972.8 857.6 934.4 896 889.6 896z m-128-300.8c0 44.8-38.4 83.2-83.2 83.2H134.4C89.6 678.4 51.2 640 51.2 595.2v-640c0-44.8 38.4-83.2 83.2-83.2h544c44.8 0 83.2 38.4 83.2 83.2v640zM384 448c0-12.8-6.4-19.2-19.2-19.2H198.4c-12.8 0-19.2 6.4-19.2 19.2v44.8c0 12.8 6.4 19.2 19.2 19.2h166.4c12.8 0 19.2-6.4 19.2-19.2V448z m172.8-339.2c0-12.8-6.4-19.2-19.2-19.2H198.4c-12.8 0-19.2 6.4-19.2 19.2v44.8c0 12.8 6.4 19.2 19.2 19.2h332.8c12.8 0 19.2-6.4 19.2-19.2v-44.8zM640 275.2c0-12.8-12.8-19.2-25.6-19.2H198.4c-12.8 0-19.2 6.4-19.2 19.2V320c0 12.8 6.4 19.2 19.2 19.2h416c12.8 0 25.6-6.4 25.6-19.2v-44.8z"  horiz-adv-x="1024" />

    
    <glyph glyph-name="star" unicode="&#58891;" d="M254.72358866-105.976404c-43.369763 0-78.528518 35.158754-78.528518 78.528518 0 1.635243 0.051165 3.269463 0.153496 4.901637l15.84078 253.247818-163.964352 201.88808C0.89453266 466.256422 6.03050666 515.705648 39.69830366 543.03611c9.004071 7.309476 19.515473 12.533454 30.779004 15.296381l247.936859 60.82532 137.696082 219.560578C479.14282366 875.454058 527.59432566 886.562047 564.32999566 863.5294710000001c10.035564-6.29231 18.517749-14.774495 24.810059-24.810059l137.706315-219.540112 247.936859-60.845787c42.113143-10.317996 67.88818-52.822043 57.56916-94.935186-2.76395-11.278881-7.995091-21.804608-15.316847-30.818913l-163.954119-201.877847 15.349593-245.337661c6.991228-42.888809-22.109554-83.324754-64.998363-90.315982-4.131087-0.673335-8.31027-1.016143-12.496615-1.02433-0.13303-0.008186-0.26606-0.008186-0.399089 0-9.559727-0.010233-19.040658 1.723248-27.977191 5.116531l-239.924371 91.483574-239.924371-91.452875c-8.936533-3.39533-18.417465-5.129834-27.977191-5.116531l0 0L254.72358866-105.976404z"  horiz-adv-x="1040" />

    
    <glyph glyph-name="xing2" unicode="&#58892;" d="M995.16244772 465.79770044c15.14329513 15.14329513 18.92911874 34.07241386 15.14329498 49.21570896-3.78582375 18.92911874-18.92911874 30.28659003-37.85823754 30.28659008l-257.43601576 37.85823755c-7.57164753 3.78582375-15.14329514 7.57164753-18.9291187 15.14329509l-113.57471282 242.29272062c-7.57164753 18.92911874-22.71494251 30.28659006-41.64406149 30.2865901-18.92911874 0-30.28659003-11.35747129-41.64406128-30.2865901l-113.57471279-242.29272061c-3.78582375-7.57164753-11.35747127-11.35747127-18.9291189-15.1432951l-257.43601569-37.85823755c-18.92911874-3.78582375-34.07241385-15.14329513-37.85823755-30.28659012-3.78582375-18.92911874 0-34.07241386 15.1432951-49.21570892l185.50536426-189.29118797c3.78582375-7.57164753 7.57164753-15.14329514 7.57164747-22.71494265l-45.42988516-268.79348681c-3.78582377-15.14329513 0-30.28659003 7.57164759-41.64406141 7.57164753-11.35747129 18.92911874-15.14329514 30.2865901-15.14329496 7.57164753 0 15.14329513 3.78582377 26.50076626 7.57164747l230.93524935 124.93218404c3.78582375 0 7.57164753 3.78582375 11.35747124 3.78582371 3.78582375 0 7.57164753 0 11.35747141-3.78582371l230.93524927-124.93218403c7.57164753-3.78582375 15.14329514-7.57164753 26.50076636-7.57164748 11.35747129 0 22.71494251 3.78582377 30.28659007 15.14329496 7.57164753 11.35747129 11.35747127 26.5007663 7.57164744 41.6440614l-45.42988494 268.79348682c0 7.57164753 3.78582375 18.92911874 7.57164743 22.71494265l185.50536429 189.29118797z"  horiz-adv-x="1088" />

    
    <glyph glyph-name="hot" unicode="&#58921;" d="M983.353376 73.073366h0.08751v0.46255z m0 0M553.70684 449.114096c-40.90443-2.700292-61.706684-28.428079-63.444372-78.458498 1.812696-50.805503 22.564944-76.483284 63.531881-78.220972 40.80442 1.737688 62.031719 27.415469 64.732012 78.483501C614.963475 420.748524 593.711173 446.476311 553.70684 449.114096zM524.841213 896c-287.443634 0-512.555516-229.199825-512.555516-521.931532 0-18.051955 3.375366-71.695266 9.688549-102.598613h-0.075008c0.175019-0.65007 0.312534-1.162626 0.46255-1.812696q1.037612-4.763016 2.500271-9.451024 3.187845-12.501354 6.863244-25.002708l1.487661-5.738121a30.640819 30.640819 0 0 1 1.250135-3.41287c32.86606-107.449138 73.30794-147.515978 73.30794-147.515978h0.075008c0.137515-1.250135 0.137515-2.500271 0.387542-3.687899 2.075225-24.577662 7.700834-89.772223-20.002166-146.803401a41.804528 41.804528 0 0 1-3.275355-16.25176 32.503521 32.503521 0 0 1 5.650612-24.74018 35.653862 35.653862 0 0 1 23.340028-14.539075c1.350146-0.212523 2.737797-0.300032 3.925425-0.37504 0.975106-0.075008 1.93771-0.137515 2.900315-0.137515a30.00325 30.00325 0 0 1 10.376123 1.737688c33.003575 6.913249 105.736453 38.616683 146.265843 66.832239a514.61824 514.61824 0 0 1 247.389295-63.406868c283.055659 0 513.255592 228.549755 513.255593 509.492685S807.859368 896 524.841213 896zM415.566878 271.594869c-1.01261-17.501896-10.313617-26.252844-27.703001-26.252844-19.277088 0-29.053147 8.750948-29.053147 26.252844v74.308048h-105.211396V271.594869c-0.950103-17.501896-10.263612-26.252844-27.677997-26.252844-18.389492 0-27.690499 8.750948-27.6905 26.252844V470.191379c0 18.326985 9.238501 28.103044 27.502979 29.028145 17.589405-0.9251 26.827906-10.676156 27.778009-28.928134v-71.707767h105.2489v71.595255c0 18.326985 9.726053 28.115545 28.965637 29.028144 17.501896-0.9251 26.765399-10.676156 27.778009-28.928133z m138.289978-27.703001H553.70684c-76.070739 3.662897-116.950167 46.25501-121.488159 126.863741 5.413086 79.783642 46.25501 123.388365 121.375647 129.789058 74.458065-6.413195 115.274986-50.005416 121.68818-129.526529-5.425588-80.796251-46.292514-123.463373-121.438153-127.138771z m273.267099 201.334307h-36.253927V271.594869c-1.950211-17.501896-11.788777-26.252844-29.090651-26.252844-18.414495 0-27.703001 8.750948-27.703001 26.252844V445.17617H697.972466c-13.813996 0-21.252302 8.900964-22.302416 26.252843q1.462658 23.527548 22.127397 25.002709h129.326508c14.726595-0.950103 23.064998-9.351013 25.002708-24.752681-1.01261-17.564402-9.438522-26.452865-25.002708-26.452866z"  horiz-adv-x="1136" />

    
    <glyph glyph-name="xing3" unicode="&#58893;" d="M1053.001784 514.170979a75.969407 75.969407 0 0 1-62.096516 51.527598L717.084405 605.004271 597.515338 853.391332a77.290397 77.290397 0 0 1-138.066923 0l-119.569067-248.387061-273.819863-39.305694a75.969407 75.969407 0 0 1-62.096516-51.527598 72.99643 72.99643 0 0 1 17.835861-75.639409l201.484428-201.153431-46.903634-279.104822a73.657425 73.657425 0 0 1 31.379755-72.666433 77.951392 77.951392 0 0 1 80.923368-4.293967l239.798129 129.148993 239.800129-129.148993a77.951392 77.951392 0 0 1 80.923369 4.293967 73.657425 73.657425 0 0 1 31.379755 72.666433l-46.903634 279.104822 201.484428 201.15443a72.99643 72.99643 0 0 1 17.835861 75.63941zM779.18192 289.235734a72.99643 72.99643 0 0 1-19.487848-63.748502l46.902634-279.104822-239.798129 129.148992a77.951392 77.951392 0 0 1-73.989422 0l-241.119119-129.148992 45.581644 279.104822a72.99643 72.99643 0 0 1-20.809837 63.749502L74.979415 490.388165l276.462843 42.27967a76.299405 76.299405 0 0 1 57.472551 41.947673l119.569067 247.066072 119.569067-248.057065a76.299405 76.299405 0 0 1 57.472552-40.95768l275.140853-40.95668z"  horiz-adv-x="1056" />

    
    <glyph glyph-name="NEW" unicode="&#58909;" d="M1498.453333 896H208.213333C92.16 896 0 797.013333 0 677.546667v-436.906667c0-119.466667 92.16-218.453333 208.213333-218.453333h112.64V-128l293.546667 146.773333 887.466667 3.413334c116.053333 0 208.213333 98.986667 208.213333 218.453333V677.546667C1706.666667 797.013333 1614.506667 896 1498.453333 896z m-921.6-614.4h-44.373333L307.2 602.453333V281.6H262.826667V674.133333h47.786666l221.866667-317.44V674.133333h44.373333V281.6z m382.293334 0h-286.72V674.133333h276.48v-37.546666H716.8v-129.706667h218.453333v-37.546667H716.8v-143.36h242.346667V281.6z m409.6 0h-51.2L1228.8 605.866667 1140.053333 281.6h-51.2L979.626667 674.133333h51.2l85.333333-327.68h3.413333l88.746667 327.68h47.786667l88.746666-327.68h3.413334L1433.6 674.133333h51.2L1368.746667 281.6z"  horiz-adv-x="1710" />

    
    <glyph glyph-name="baoming" unicode="&#58885;" d="M400.2 316.2c-143.2 0-259.7 114.8-259.7 256s116.5 256 259.7 256 259.7-114.8 259.7-256-116.5-256-259.7-256z m0 448c-107.9 0-195.7-86.1-195.7-192s87.8-192 195.7-192c107.9 0 195.7 86.1 195.7 192s-87.8 192-195.7 192zM680.3 314.9v64c88.2 0 160 71.8 160 160s-71.8 160-160 160v64c123.5 0 224-100.5 224-224s-100.5-224-224-224zM1014.6-63.5h-64c0 208.6-119.5 378.4-266.3 378.4v64c182.1 0 330.3-198.4 330.3-442.4zM806.3-65.8h-64c0 209.2-151.3 379.4-337.3 379.4S67.6 143.4 67.6-65.8h-64c0 244.5 180 443.4 401.3 443.4s401.4-198.9 401.4-443.4z"  horiz-adv-x="1024" />

    
    <glyph glyph-name="wancheng" unicode="&#59030;" d="M820.7872 691.72224a435.93728 435.93728 0 1 1 0-615.424c169.53344 170.10688 169.53344 445.29664 0 615.424zM776.192 120.89344c-145.19296-145.1008-380.49792-145.1008-525.69088 0a371.83488 371.83488 0 1 0 525.69088 0zM695.64416 529.65376a32.31744 32.31744 0 1 0 45.13792-45.13792L490.496 234.24a37.43744 37.43744 0 0 0-51.28192 0L296.63232 375.808a32.3072 32.3072 0 1 0 45.13792 45.12768L461.824 298.35264z m0 0"  horiz-adv-x="1024" />

    
    <glyph glyph-name="luqu" unicode="&#58880;" d="M938.667 81.067c23.466 0 42.666 19.2 42.666 42.666v448c0 23.467-19.2 42.667-42.666 42.667S896 595.2 896 571.733v-448c0-23.466 19.2-42.666 42.667-42.666zM469.333 394.667l-435.2 170.666c-17.066 6.4-29.866 23.467-32 42.667-4.266 25.6 12.8 51.2 36.267 59.733L471.467 819.2c46.933 17.067 51.2 17.067 89.6 0l422.4-151.467C1006.933 659.2 1024 640 1024 614.4v-8.533c-2.133-19.2-17.067-36.267-36.267-44.8L561.067 390.4c-46.934-19.2-49.067-19.2-89.6 0 0 4.267-2.134 4.267-2.134 4.267zM561.067 352c-46.934-19.2-49.067-19.2-89.6 0 0 0-2.134 0-2.134 2.133L200.533 460.8c-14.933 4.267-29.866-6.4-29.866-21.333v-341.334c8.533-64 168.533-160 341.333-160s290.133 93.867 298.667 160V420.267c0 14.933-14.934 25.6-29.867 19.2L561.067 352z"  horiz-adv-x="1024" />

    
    <glyph glyph-name="shuaxin1" unicode="&#58944;" d="M1139.357162 461.022609h-75.063652C1031.748118 706.649043 827.704988 896 580.876466 896c-94.252522 0-182.227478-27.603478-256.801391-75.375304a50.621217 50.621217 0 0 1-25.555478-44.299131c0-27.826087 21.815652-50.398609 48.795826-50.398608 10.596174 0 20.435478 3.561739 28.449391 9.48313a379.63687 379.63687 0 0 0 204.978087 59.970783c192.957217 0 353.190957-144.473043 384.890435-334.358261l-83.789913-0.044522c-10.061913 0-18.253913-8.45913-18.253913-18.877217 0-3.695304 1.068522-7.123478 2.849391-10.061913l64.022261-114.465392 64.467478-115.311304a18.120348 18.120348 0 0 1 15.671652-9.171478c6.500174 0 12.243478 3.561739 15.493565 8.859826h0.044522l64.645565 115.622956 63.799653 114.153739a19.277913 19.277913 0 0 1 3.027478 10.418087 18.565565 18.565565 0 0 1-18.253913 18.832696m-289.836522-394.150957c-12.911304 0-24.665043-5.209043-33.391304-13.668173l-0.044522 0.089043a380.883478 380.883478 0 0 0-234.362435-80.673391c-215.707826 0-390.589217 180.624696-390.589217 403.411478l0.133565 10.418087h84.502261c10.106435 0 18.253913 8.45913 18.253913 18.832696a19.233391 19.233391 0 0 1-3.027478 10.418087L227.19577 529.808696 162.594727 645.476174h-0.089044A18.120348 18.120348 0 0 1 146.967597 654.246957c-6.633739 0-12.466087-3.650783-15.671653-9.171479l-64.467478-115.311304-64.022261-114.465391a19.233391 19.233391 0 0 1-2.804869-10.061913c0-10.418087 8.192-18.832696 18.253913-18.832696h75.686956c-0.089043-3.517217-0.133565-6.945391-0.133565-10.462609 0-278.349913 218.468174-503.986087 487.958261-503.986087a475.937391 475.937391 0 0 1 299.186087 105.828174l1.024 0.801391v0.089044c10.017391 9.260522 16.339478 22.706087 16.339478 37.665391 0 27.870609-21.815652 50.44313-48.795826 50.443131"  horiz-adv-x="1157" />

    
    <glyph glyph-name="baoming1" unicode="&#58910;" d="M99.5-57.1c-20.3 2.6-34.7 21.2-32.2 41.5 2.1 16.8 15.4 30 32.2 32.2h825.1c20.3-2.6 34.7-21.2 32.2-41.5-2.1-16.8-15.4-30-32.2-32.2H99.5zM779 808l83.1-83.1c22.9-23 22.9-60.1 0-83.1L335.2 116.7c-11.1-11-26.2-17.2-41.8-17.1H183.7c-16.3 0-29.5 13.2-29.5 29.5V241.7c-0.1 15.7 6.1 30.7 17.1 41.8L695.9 808c23 22.9 60.1 22.9 83.1 0zM227.9 235.8v-62.5h62.5l509.8 509.8-62.5 63.1-509.8-510.4z"  horiz-adv-x="1024" />

    
    <glyph glyph-name="zaixianbaoming" unicode="&#58962;" d="M816.078 160.116H208.121c-61.81 0-112.096 50.286-112.096 112.096V640.121c0 52.987 43.108 96.096 96.096 96.096h623.958c61.81 0 112.096-50.286 112.096-112.096v-351.909c-0.001-61.81-50.287-112.096-112.097-112.096z m-623.957 512.1c-17.698 0-32.096-14.398-32.096-32.096v-367.909c0-26.521 21.576-48.096 48.096-48.096h607.958c26.521 0 48.096 21.575 48.096 48.096v351.91c0 26.52-21.575 48.096-48.096 48.096H192.121zM704.137 32.279H320.062c-17.673 0-32 14.327-32 32s14.327 32 32 32h384.075c17.673 0 32-14.327 32-32s-14.327-32-32-32zM313.715 473.126l48.678 41.548 136.525-159.952-48.679-41.548zM409.37 363.734l258.353 211.969 40.595-49.479-258.353-211.969z"  horiz-adv-x="1024" />

    
    <glyph glyph-name="tongzhi" unicode="&#58898;" d="M524.8-32c57.6 0 104 46.4 104 104h-208c0-57.6 46.4-104 104-104z m284.8 312H784v208c0 123.2-86.4 230.4-208 254.4V800h-104v-57.6c-121.6-24-208-131.2-208-254.4v-208h-25.6c-43.2 0-78.4-35.2-78.4-78.4s35.2-78.4 78.4-78.4h572.8c43.2 0 78.4 35.2 78.4 78.4s-36.8 78.4-80 78.4z m-264 208l-73.6-73.6c-20.8-20.8-52.8-19.2-73.6 1.6-19.2 20.8-19.2 52.8 0 72l73.6 73.6c20.8 20.8 52.8 20.8 73.6 0 20.8-20.8 20.8-52.8 0-73.6z"  horiz-adv-x="1024" />

    
    <glyph glyph-name="wodedangxuan" unicode="&#58881;" d="M907.264-70.65599999999995H114.688c-16.384 0-32.768 8.192-43.008 20.48-10.24 14.336-14.336 30.72-10.24 47.104 40.96 208.896 210.944 364.544 415.744 380.928 68.608 0 142.848-8.704 217.088-38.912 21.504-8.704 28.672-14.336 40.96-20.48 118.784-67.584 200.704-184.32 227.328-321.536 4.096-16.384 0-32.768-12.288-47.104-10.24-12.288-26.624-20.48-43.008-20.48ZM115.712-37.375999999999976c-6.656 0-12.8 2.56-16.384 7.168-0.512 0.512-0.512 1.024-1.024 1.536-5.12 5.12-5.632 13.824-4.608 18.944 37.888 194.56 197.12 340.48 387.584 354.304h15.36c91.648 0 179.712-28.672 222.72-55.808C832 221.18399999999997 907.264 115.20000000000004 930.816-9.727999999999951c1.024-7.168-0.512-13.824-5.632-20.48-3.584-4.608-9.728-7.168-16.384-7.168H115.712ZM496.64 332.288c89.088 0 174.592-27.648 216.064-53.76h0.512c109.568-65.024 182.272-167.936 204.8-289.792 0.512-2.56 0.512-6.144-3.584-10.752-0.512-1.024-3.072-2.048-6.144-2.048H115.712c-3.072 0-5.632 1.024-6.144 2.048-0.512 1.024-1.536 2.048-2.56 2.56-1.024 1.024-2.048 4.096-1.024 7.68 36.864 188.928 190.976 330.24 375.808 344.064 4.608-0.512 9.728 0 14.848 0m0 25.6c-5.12 0-10.752 0-15.872-0.512C284.16 343.03999999999996 120.32 193.53599999999994 81.408-7.168000000000006c-2.048-10.24 0-22.528 8.192-30.72 6.144-8.192 16.384-12.288 26.624-12.288H908.8c10.24 0 20.48 4.096 26.624 12.288 6.144 8.192 10.24 18.432 8.192 30.72-24.576 131.072-102.4 238.592-217.088 307.2-43.52 27.136-132.608 57.856-229.888 57.856ZM512 359.424c-129.024 0-235.52 106.496-235.52 235.52S382.976 830.4639999999999 512 830.4639999999999s235.52-106.496 235.52-235.52S641.024 359.424 512 359.424ZM512 392.704c-111.616 0-202.24 90.624-202.24 202.24S400.384 797.184 512 797.184s202.24-90.624 202.24-202.24-90.624-202.24-202.24-202.24ZM512 784.384c104.448 0 189.44-84.992 189.44-189.44S616.448 405.504 512 405.504s-189.44 84.992-189.44 189.44 84.992 189.44 189.44 189.44m0 25.6c-118.784 0-215.04-96.256-215.04-215.04s96.256-215.04 215.04-215.04 215.04 96.256 215.04 215.04S630.784 809.984 512 809.984Z"  horiz-adv-x="1024" />

    
    <glyph glyph-name="jiantouyou" unicode="&#59356;" d="M765.824 775.552l-57.536 57.536L257.664 382.4l1.984-1.856-0.384-0.384 442.048-441.984 57.984 57.92-386.432 386.496z"  horiz-adv-x="1024" />

    
    <glyph glyph-name="jiantouyou1" unicode="&#59357;" d="M258.176-7.552l57.536-57.536L766.336 385.6l-1.984 1.856 0.384 0.384L322.688 829.824l-57.984-57.92 386.432-386.496z"  horiz-adv-x="1024" />

    
    <glyph glyph-name="QQ" unicode="&#58924;" d="M0 896m238.933333 0l546.133334 0q238.933333 0 238.933333-238.933333l0-546.133334q0-238.933333-238.933333-238.933333l-546.133334 0q-238.933333 0-238.933333 238.933333l0 546.133334q0 238.933333 238.933333 238.933333ZM284.330667 458.752c-3.413333-8.533333 1.536-13.994667 0-46.762667 0-8.704-39.594667-48.64-55.125334-90.112s-17.066667-83.797333 6.144-100.693333 46.08 55.978667 48.981334 45.397333a138.581333 138.581333 0 0 1 4.608-14.336 204.8 204.8 0 0 1 39.082666-62.464c3.754667-4.266667-23.04-11.946667-39.082666-38.229333S293.546667 76.8 373.248 76.8c102.4 0 125.610667 34.133333 127.658667 34.133333a131.242667 131.242667 0 0 1 17.066666 0 110.250667 110.250667 0 0 1 15.018667 0c4.949333 0 54.954667-41.984 123.904-34.133333 117.76 11.946667 99.84 50.176 90.453333 74.410667s-43.690667 36.864-42.154666 38.570666a168.448 168.448 0 0 1 42.154666 76.458667c4.096 11.434667 31.402667-62.805333 52.394667-45.397333 8.704 7.168 26.282667 37.205333 8.704 100.693333s-51.2 78.165333-51.2 90.112a204.8 204.8 0 0 1 0 46.762667c-6.144 21.845333-19.285333 17.066667-19.285333 21.845333C737.109333 605.866667 639.488 708.266667 518.997333 708.266667s-218.112-102.4-218.112-227.498667c0-10.069333-9.045333-2.730667-17.066666-22.016z"  horiz-adv-x="1024" />

    
    <glyph glyph-name="baoming2" unicode="&#58911;" d="M363.61183 342.463475c-0.486519-0.608148-0.973037-1.337926-1.216296-2.189333l-39.651265-145.347429c-2.310963-8.514075 0-17.636299 6.324742-23.96104 4.621927-4.621927 10.946668-7.05452 17.393039-7.05452 2.189334 0 4.378667 0.243259 6.446371 0.851408l144.374392 39.408006c0.243259 0 0.364889-0.243259 0.486518-0.24326 1.702815 0 3.284 0.608148 4.500297 1.824445l386.052501 385.930871c11.433187 11.433187 17.757928 27.123411 17.757928 44.151562 0 19.339114-8.149186 38.556598-22.501485 52.787266l-36.488894 36.488895C832.73738 739.462644 813.519895 747.61183 794.180782 747.61183c-17.028151 0-32.596745-6.324742-44.151562-17.757928L364.219979 343.801402c-0.486519-0.364889-0.364889-0.851408-0.608149-1.337927m487.005108 286.924338l-38.313339-38.313339-62.15275 63.125787 37.826821 37.826821c5.959853 5.959853 17.514669 5.108445 24.447559-1.702815l36.488894-36.488895c3.770519-3.770519 5.959853-8.878964 5.959853-13.865779-0.12163-4.135408-1.581185-7.905927-4.257038-10.58178m-418.405987-293.00582l278.531893 278.531892 62.152749-63.247416L494.971849 273.742725l-62.760898 62.639268z m-50.719562-112.872313l20.190521 73.829196 53.638674-53.760304-73.829195-20.068892z m493.573108 252.989667c-14.595558 0-26.636893-11.919705-26.636893-26.636893v-359.902126c0-18.852595-15.325336-34.177931-34.177931-34.177931H205.371659c-18.852595 0-34.299561 15.325336-34.29956 34.177931V677.309894c0 18.852595 15.325336 34.177931 34.29956 34.177931h392.012353c14.717187 0 26.636893 11.919705 26.636893 26.636893 0 14.717187-11.919705 26.636893-26.636893 26.636893H201.357881c-45.976007 0-83.437938-37.461931-83.437938-83.437938v-595.498753c0-45.976007 37.461931-83.437938 83.437938-83.437938h616.783941c46.097636 0 83.437938 37.461931 83.437938 83.437938V449.984084c0 14.595558-11.919705 26.515263-26.515263 26.515263"  horiz-adv-x="1024" />

    
    <glyph glyph-name="fuwu" unicode="&#59186;" d="M296.607 483.884a215.393 215.393 0 1 1 430.786 0 215.393 215.393 0 1 1-430.786 0zM678.914 288.428c-39.498-48.371-99.595-79.396-166.914-79.396s-127.416 31.094-166.914 79.464C220.987 246.484 135.66 140 135.66 39c0-92 752.68-92 752.68 0 0 101-85.327 207.416-209.426 249.428z m129.974 282.233C773.655 701.786 653.914 798.096 512.001 798.096c-141.821 0-261.498-96.183-296.818-227.175-32.929-6.717-58.723-39.877-58.723-79.802 0-44.772 32.429-80.908 70.991-80.908 19.211 0 28.849 39.789 28.918 80.789h0.801c0 140 114.317 254.672 254.832 254.672 137.2 0 249.403-109.35 254.62-245.04-1.616-43.421 7.959-90.541 28.739-90.541 38.562 0 70.991 36.275 70.991 81.047-0.001 39.417-25.139 72.229-57.464 79.523z"  horiz-adv-x="1024" />

    
    <glyph glyph-name="index" unicode="&#58882;" d="M569.8048 874.7264a82.0736 82.0736 0 0 1-110.2848 0L13.568 451.2768a41.1392 41.1392 0 0 1 55.0912-61.1072l7.0912 6.7328V-45.05600000000004a82.2784 82.2784 0 0 1 82.2784-82.3808h239.4368v247.7056a57.9328 57.9328 0 0 0 57.9584 58.0096h112.6656a57.9328 57.9328 0 0 0 57.9584-58.0096v-247.7056h245.12a82.2784 82.2784 0 0 1 82.304 82.3808V391.5008c18.2784-16.5376 44.2112-15.2832 59.4176 1.664a41.1392 41.1392 0 0 1-2.9696 58.112L569.8048 874.7008z"  horiz-adv-x="1024" />

    
    <glyph glyph-name="jiantou-you" unicode="&#58991;" d="M526.966 851.89a472.615 472.615 0 1 0 0-945.232 472.615 472.615 0 0 0 0 945.231zM629.21 389.04c-0.788 1.576-1.576 3.072-2.757 4.569l-0.788 0.788c-0.236 0.236-0.473 0.787-0.788 1.024L460.17 554.062a21.74 21.74 0 0 1-15.518 6.302 22.922 22.922 0 0 1-16.305-6.853 22.843 22.843 0 0 1 0.551-31.98l148.48-143.124-149.03-141.154a22.528 22.528 0 0 1-0.789-31.98c8.665-9.216 22.922-9.453 32.06-0.788L625.663 361.63a22.213 22.213 0 0 1 4.569 25.915c-0.473 0.787-0.788 1.024-1.024 1.575z"  horiz-adv-x="1024" />

    
    <glyph glyph-name="duihao" unicode="&#58945;" d="M488 590.3h47.7c5.2 0 9.3-4.7 9.2-10.5l-6.6-297.6c-0.1-5.5-4.2-10-9.2-10h-36.9c-5 0-9.1 4.5-9.2 10L478.8 580c-0.1 5.7 4.1 10.3 9.2 10.3zM891.2 197.4L881 590.6c-0.5 19.3-11.3 36.8-28.2 46.1L507.2 824.4c-17 9.2-37.5 8.7-54-1.4L117.8 617.6c-16.5-10.1-26.3-28.2-25.8-47.4L102.2 177c0.5-19.3 11.3-36.8 28.2-46.1L476-56.9c17-9.2 37.5-8.7 54 1.4l335.4 205.4c16.5 10.1 26.3 28.2 25.8 47.5zM716.6 507.5L449 223.7c-4.9-5.2-11.7-8.2-18.8-8.3h-0.5c-7 0-13.6 2.7-18.6 7.6L267.2 365.3c-10.4 10.3-10.5 27-0.2 37.4 10.3 10.4 27 10.5 37.4 0.2L429 279.7l249 264.1c10 10.6 26.8 11.1 37.4 1.1 10.7-10 11.2-26.7 1.2-37.4z"  horiz-adv-x="1024" />

    
    <glyph glyph-name="ji" unicode="&#58896;" d="M1611.605333 896H94.805333C42.496 896 0 838.570667 0 768v-768c0-70.570667 42.496-128 94.805333-128H1611.946667c52.309333 0 94.805333 57.429333 94.805333 128v768C1706.496 838.826667 1664 896 1611.605333 896zM651.605333 428.032l-236.373333-345.6a12.714667 12.714667 0 0 0-8.021333-3.669333c-1.450667 0-3.413333 0-3.413334 1.450666a8.021333 8.021333 0 0 0-6.741333 9.130667c0 0.426667 0.256 0.682667 0.256 1.194667l37.461333 232.021333h-164.693333a8.106667 8.106667 0 0 0-8.021333 5.12 11.434667 11.434667 0 0 0 1.450666 11.776l254.293334 345.344c3.413333 5.12 6.570667 5.12 11.434666 1.536a9.642667 9.642667 0 0 0 6.485334-10.325333l-37.461334-232.106667h145.408c3.413333 0.341333 6.826667-1.877333 8.021334-5.12v-10.752z m397.824 244.309333l57.002667-13.482666-21.76-32.938667h187.904v-39.68a642.901333 642.901333 0 0 0-48.042667-57.941333h113.066667V303.786667h-396.117333v51.2h341.504v36.608H964.266667V440.32h318.549333v36.522667h-338.346667v2.474666c-15.274667-11.349333-28.074667-20.650667-38.4-27.477333l-36.693333 44.629333c69.546667 42.666667 129.706667 101.290667 180.138667 175.786667z m173.909334-450.133333l-47.616-33.536a619.861333 619.861333 0 0 1-64.938667 78.677333l46.933333 29.184c27.733333-26.453333 49.493333-51.456 65.621334-74.24zM925.781333 116.906667l-49.322666 31.573333c26.88 38.741333 46.165333 80.469333 57.770666 125.098667l55.808-11.093334a494.08 494.08 0 0 0-64.256-145.578666z m354.133334 5.376c-11.093333-8.533333-29.013333-12.8-53.674667-12.8h-144.896c-40.874667 0-61.44 20.906667-61.44 62.293333V278.698667h57.770667v-94.72c0-15.445333 6.570667-23.296 19.797333-23.296h117.930667c11.093333 0 19.285333 2.901333 24.149333 8.533333 6.485333 6.656 10.581333 25.770667 12.544 57.941333l54.101333-17.664c-4.864-48.810667-13.568-77.994667-26.368-87.296z m94.122666 3.157333a1082.026667 1082.026667 0 0 1-82.773333 133.717333l45.568 29.184c36.010667-47.616 64.256-90.538667 84.821333-128.853333l-47.616-34.048z m-156.757333 453.888a804.181333 804.181333 0 0 0-48.64-49.92h-155.306667c17.408 17.408 33.28 33.962667 47.530667 49.834667h156.416z"  horiz-adv-x="1706" />

    
    <glyph glyph-name="shouye1" unicode="&#58883;" d="M566.192 844.056a76.944 76.944 0 0 1-103.392 0L44.72 447.072a38.568 38.568 0 0 1 51.648-57.288l6.648 6.312V-18.24000000000001a77.136 77.136 0 0 1 77.136-77.232h224.472v232.224a54.312 54.312 0 0 0 54.336 54.384h105.624a54.312 54.312 0 0 0 54.336-54.384v-232.224h229.8a77.136 77.136 0 0 1 77.16 77.232V391.032c17.136-15.504 41.448-14.328 55.704 1.56a38.568 38.568 0 0 1-2.784 54.48L566.192 844.032z"  horiz-adv-x="1024" />

    
    <glyph glyph-name="xiaoxi-" unicode="&#58899;" d="M932.571429 859.428571h-768A90.697143 90.697143 0 0 1 73.142857 768v-581.485714A91.428571 91.428571 0 0 1 164.571429 91.428571h157.257142v-131.657142a50.102857 50.102857 0 0 1 51.2-51.2 65.097143 65.097143 0 0 1 36.571429 14.628571l168.228571 168.228571h351.085715a90.697143 90.697143 0 0 1 91.428571 91.428572v585.142857A85.577143 85.577143 0 0 1 932.571429 859.428571z m-270.628572-541.257142H266.971429a47.542857 47.542857 0 0 0 0 95.085714h394.971428a47.542857 47.542857 0 0 0 0-95.085714z m168.228572 219.428571H266.971429A46.08 46.08 0 0 0 219.428571 585.142857a48.274286 48.274286 0 0 0 47.542858 47.542857h563.2A48.274286 48.274286 0 0 0 877.714286 585.142857a46.08 46.08 0 0 0-47.542857-47.542857z"  horiz-adv-x="1097" />

    
    <glyph glyph-name="tongzhi1" unicode="&#58900;" d="M517.5-62.9c-62.4 0-113 50.6-113 113h225.9c0-62.4-50.5-113-112.9-113zM856.4 101.4h-688c-19.9 0-35.9 16.1-35.9 35.9v10.3c0 18.4 13.8 38 31.7 40.7 21 18.4 35.1 51.8 35.1 90.2 0 2.6-0.1 5.1-0.3 7.7h0.3V455.7c0 150.1 105.6 275.5 246.6 306 0 0.7-0.1 1.4-0.1 2 0 36.9 29.9 66.7 66.7 66.7s66.7-29.9 66.7-66.7c0-0.7-0.1-1.4-0.1-2 141-30.6 246.6-155.9 246.6-306v-174.6h0.3c-0.1-2.6-0.3-5.1-0.3-7.7 0-38.4 14.1-71.9 35.2-90.3 17.8-2.2 31.6-17.1 31.6-35.5v-10.3c-0.2-19.8-16.3-35.9-36.1-35.9z"  horiz-adv-x="1024" />

    
    <glyph glyph-name="fuwu1" unicode="&#59064;" d="M613.010773 250.988089l-108.111644 59.871004-106.204729-61.586773 19.258027 128.894293-88.85248 90.759396 120.315449 20.022613 52.24448 117.835094 55.867164-116.119325 120.310898-18.115698-85.417529-92.476302 20.590364-129.084302z m177.898383 513.480249H224.41984c-22.689564 0-38.324907-25.359929-38.324907-50.719858V53.259378c0-63.493689 57.581796-50.714169 78.364445-41.754169l207.453298 98.004764c20.973796 9.15456 55.676018 10.870329 76.649813 0l221.372871-101.627449c20.973796-9.151147 67.875271-5.336178 67.875271 50.719858V713.74848c-3.4304 25.359929-24.213049 50.719858-46.901475 50.719858z m0 0"  horiz-adv-x="1024" />

    
    <glyph glyph-name="youjian1" unicode="&#59371;" d="M898.048 636.928c-34.816 61.952-82.944 108.544-143.872 139.776S624.64 823.296 548.352 823.296c-98.304 0-182.272-22.016-251.392-66.56-69.12-44.032-122.368-108.544-159.744-191.488-30.72-68.096-46.08-139.776-46.08-214.528 0-67.584 12.8-130.048 38.912-188.416 20.48-46.08 51.2-86.528 92.16-121.856 40.448-35.328 89.6-61.44 147.456-79.36 57.856-17.408 119.808-26.112 187.904-21.504 74.752 5.12 91.648 12.288 153.6 23.04l-1.024 59.904c-182.784-51.712-297.984-6.144-359.936 19.456S240.64 109.056 207.872 163.328c-32.768 54.784-48.64 119.296-48.64 194.56 0 72.192 16.384 139.264 49.152 202.24s78.848 111.104 138.752 144.896c59.392 33.792 125.44 50.688 197.632 50.688 62.976 0 120.832-13.312 173.056-39.936 52.224-26.624 91.648-62.464 117.76-107.008 26.112-44.544 39.424-92.672 39.424-143.872 0-44.032-10.24-87.04-30.72-128-20.48-41.472-48.128-74.24-83.456-98.816-26.624-18.944-48.128-28.16-64-28.16-9.216 0-16.384 3.072-23.04 9.216-6.144 6.144-9.728 13.312-9.728 21.504 0 4.608 4.608 31.232 13.824 74.24l66.56 312.32h-82.432l-15.872-74.24c-17.408 28.672-38.4 48.64-62.976 62.464-24.064 13.824-49.664 20.48-76.8 20.48-34.816 0-71.168-12.8-108.544-37.376s-68.608-61.44-93.696-110.592c-25.088-49.152-37.888-98.304-37.888-146.944 0-39.936 8.192-76.288 24.064-109.568 16.384-33.28 37.376-57.856 62.976-73.728 26.112-15.872 52.224-24.064 79.872-24.064 25.088 0 49.664 7.168 74.752 20.992 24.576 13.824 47.104 32.768 67.072 55.808 2.048-18.944 4.608-32.256 8.704-39.424 6.144-11.776 15.872-21.504 28.672-27.648 12.8-6.656 30.208-9.728 51.712-9.728 66.56 0 127.488 31.232 183.808 93.184 62.976 69.12 94.208 148.48 94.208 238.08 0.512 60.928-14.336 118.784-44.032 172.032z m-295.424-296.96c-11.264-31.232-25.6-56.832-43.008-77.312-17.408-20.48-35.328-35.84-54.784-46.08-18.944-10.24-37.376-15.36-54.272-15.36-26.112 0-48.64 11.776-68.608 34.816-19.968 23.552-30.208 56.32-30.208 98.304 0 26.624 5.12 55.296 14.848 87.552 9.728 31.744 23.04 58.88 39.424 80.896s33.28 38.4 50.688 48.128c17.408 10.24 35.84 14.848 55.808 14.848 29.696 0 55.296-11.776 75.776-34.816 20.992-23.04 31.232-55.296 31.232-97.28 0-31.232-5.632-62.464-16.896-93.696z"  horiz-adv-x="1024" />

    
    <glyph glyph-name="HOT" unicode="&#59015;" d="M201.20893 564.7116189999999a364.739048 364.739048 0 0 0 36.522666-138.825143C337.791025 550.765714 430.048549 677.790476 420.296168 850.553905a407.747048 407.747048 0 0 0 171.983238-142.092191 636.68419 636.68419 0 0 0 94.208-203.971047c46.567619 51.98019 37.351619 106.788571 23.405714 162.377143l4.486095 5.168761c11.946667-13.653333 23.649524-27.355429 35.644953-40.813714a618.691048 618.691048 0 0 0 146.090666-261.753905 346.063238 346.063238 0 0 0-84.74819-334.848 456.606476 456.606476 0 0 0-356.498286-155.209142 398.531048 398.531048 0 0 0-248.685714 93.086476 367.567238 367.567238 0 0 0-106.447238 119.612952 266.971429 266.971429 0 0 0-5.851429 219.038476c15.60381 43.008 38.765714 82.16381 55.734857 125.415619 17.017905 43.25181 35.108571 85.430857 51.590096 128.146286zM148.74112 365.27542900000003h39.936v-101.717334h123.562667v101.717334h39.936v-243.712h-39.936V229.424762H188.67712v-107.861333h-39.936v243.712z m359.424 4.778666c37.205333 0 66.56-11.946667 88.064-36.181333 20.48-22.869333 30.72-53.248 30.72-90.794667s-10.24-67.584-30.72-90.453333c-21.504-23.893333-50.858667-35.84-88.064-35.84-37.546667 0-66.901333 12.288-88.064 36.181333-20.48 23.210667-30.378667 53.248-30.378667 90.112 0 37.205333 9.898667 67.242667 30.378667 90.453334 21.162667 24.576 50.517333 36.522667 88.064 36.522666z m0-35.157333c-25.258667 0-44.714667-8.533333-58.709333-25.6-13.312-16.384-19.797333-38.229333-19.797334-66.218667 0-27.648 6.485333-49.493333 19.797334-65.877333 13.653333-16.725333 33.450667-25.258667 58.709333-25.258667 25.258667 0 44.714667 8.192 58.368 24.234667 13.312 16.042667 20.138667 38.229333 20.138667 66.901333 0 28.672-6.826667 51.2-20.138667 67.584-13.653333 16.384-33.109333 24.234667-58.368 24.234667z m137.557333 30.378667h199.68v-34.133334h-79.872v-209.578666h-39.936v209.578666h-79.872v34.133334z"  horiz-adv-x="1024" />

    
    <glyph glyph-name="jiantouyou-copy" unicode="&#58886;" d="M120.448 637.8240000000001L62.912 580.28800001 513.6 129.664 515.456 131.64800000000002 515.84 131.264 957.82400001 573.312 899.904 631.296 513.408 244.86400000000003Z"  horiz-adv-x="1024" />

    


  </font>
</defs>
</svg>
